# xmcd
#
# Track frame offsets:
#	150
#	13651
#	33749
#	47447
#	60785
#	79176
#	90099
#	107146
#	117382
#	129050
#	147751
#	156370
#	170266
#	181417
#	189802
#
# Disc length: 2701 seconds
# Revision: 0
# Processed by: cddbd v1.5.2PL0 Copyright (c) Steve Scherf et al.
# Submitted via: dBpowerAMP V12.0
#
DISCID=ae0a8b0f
DTITLE=Various Artist - Little Black Train
DYEAR=2010
DGENRE=Folk
TTITLE0=Gregory Paul - Little Black Train
TTITLE1=Gregory Paul - Wayfaring Stranger
TTITLE2=Gregory Paul - Little Sadie
TTITLE3=Gregory Paul - Celluloid King
TTITLE4=Gregory Paul - I'll Fly Away
TTITLE5=Gregory Paul - This Little Light
TTITLE6=Gregory Paul - In The Pines
TTITLE7=Gregory Paul - Stagger Lee
TTITLE8=Gregory Paul - The Singers
TTITLE9=Gregory Paul - Shady Grove
TTITLE10=Gregory Paul - Fall On My Knees
TTITLE11=Gregory Paul - Rub Alcohol Blues
TTITLE12=Gregory Paul - Dusty Man
TTITLE13=Gregory Paul - Going Across the Sea
TTITLE14=Gregory Paul with Holly Merrill - Meeting is Over
EXTD=
EXTT0=
EXTT1=
EXTT2=
EXTT3=
EXTT4=
EXTT5=
EXTT6=
EXTT7=
EXTT8=
EXTT9=
EXTT10=
EXTT11=
EXTT12=
EXTT13=
EXTT14=
PLAYORDER=
